# xmcd
#
# Track frame offsets:
#	182
#	24730
#	46985
#	61375
#	83972
#	105952
#	123870
#	143602
#	164450
#	189670
#	209332
#
# Disc length: 2998 seconds
#
# Revision: 0
# Processed by: cddbd v1.4PL0 Copyright (c) Steve Scherf et al.
# Submitted via: EasyCDDAExtractor 4.6.0.1
#
DISCID=910bb40b
DTITLE=Gabin Dabiré - Kontôme
DYEAR=1900
DGENRE=
TTITLE0=Bi gbãale
TTITLE1=Sizà
TTITLE2=Bi gbãale zà
TTITLE3=Doudou
TTITLE4=Yoró Woulou'
TTITLE5=Fanta
TTITLE6=Kontômé
TTITLE7=Mariam a ne awa
TTITLE8=Mýab yê
TTITLE9=Warba
TTITLE10=A nisala
EXTD=
EXTT0=
EXTT1=
EXTT2=
EXTT3=
EXTT4=
EXTT5=
EXTT6=
EXTT7=
EXTT8=
EXTT9=
EXTT10=
PLAYORDER=
